# xmcd
#
# Track frame offsets:
#	300
#	15810
#	19997
#	36825
#	44410
#	62115
#	78410
#	94445
#	108132
#	123877
#	142060
#	160147
#	173757
#	188280
#	202167
#	206072
#
# Disc length: 3040 seconds
#
# Revision: 1
# Processed by: cddbd v1.4PL0 Copyright (c) Steve Scherf et al.
# Submitted via: MusicWizard 6.0.1
#
DISCID=d60bdc10
DTITLE=Paul Kennerley - The Legend Of Jesse James: 1847-1882
DYEAR=1980
DGENRE=Country
TTITLE0=Rodney Crowell, Jody Payne, Levon Helm and Rosanne Cash - Ride Of The RedLegs
TTITLE1=Levon Helm - Quantrill's Guerillas
TTITLE2=Johnny Cash - Six Gun Shooting
TTITLE3=Albert Lee - Have You Heard The News
TTITLE4=Emmylou Harris - Heaven Ain't Ready For You Yet
TTITLE5=Johnny Cash - Help Him, Jesus
TTITLE6=Charlie Daniels and Levon Helm - The Old Clay County
TTITLE7=Charlie Daniels - Riding With Jesse James
TTITLE8=Albert Lee - Hunt Them Down
TTITLE9=Emmylou Harris - Wish We Were Back In Missouri
TTITLE10=Levon Helm - Northfield: The Plan
TTITLE11=Charlie Daniels - Northfield: The Disaster
TTITLE12=Levon Helm - High Walls
TTITLE13=Johnny Cash and Levon Helm - The Death Of Me
TTITLE14=The Plot
TTITLE15=Levon Helm - One More Shot
EXTD=(c)1980 A&M Records\nupc 082839371827\n
EXTT0=
EXTT1=
EXTT2=
EXTT3=
EXTT4=
EXTT5=
EXTT6=
EXTT7=
EXTT8=
EXTT9=
EXTT10=
EXTT11=
EXTT12=
EXTT13=
EXTT14=
EXTT15=
PLAYORDER=
